<svg id="ic-wb-sunny-24px" xmlns="http://www.w3.org/2000/svg" width="19.499" height="19.499" viewBox="0 0 19.499 19.499">
  <path id="Path_4" data-name="Path 4" d="M0,0H19.5V19.5H0Z" fill="none"/>
  <path id="Path_5" data-name="Path 5" d="M5.68,4.035,4.217,2.581,3.072,3.727,4.526,5.181Zm-2.242,4.6H1v1.625H3.437ZM10.75.55H9.125v2.4H10.75V.55ZM16.8,3.727,15.657,2.581,14.2,4.035l1.146,1.146ZM14.194,14.857l1.454,1.462,1.146-1.146L15.332,13.72l-1.137,1.137Zm2.242-6.223v1.625h2.437V8.634Zm-6.5-4.062a4.875,4.875,0,1,0,4.875,4.875A4.879,4.879,0,0,0,9.937,4.572ZM9.125,18.343H10.75v-2.4H9.125ZM3.072,15.166l1.146,1.146,1.454-1.462L4.526,13.7Z" transform="translate(-0.188 -0.103)" fill="#fff"/>
</svg>
